<?xml version="1.0" standalone="yes"?>
<svg width="500" height="500">
    <path style="fill:#ffffff; stroke:none;" d="M0 0L0 500L500 500L500 0L0 0z"/>
    <path style="fill:#ebebeb; stroke:none;" d="M126 87L126 88L371 88L348 87L299 87L126 87z"/>
    <path style="fill:#d7d7d7; stroke:none;" d="M175 342L175 412C187.738 399.398 195.832 376.634 204.719 361C207.621 355.895 211.394 344.938 217.105 342.603C227.134 338.504 245.164 342 256 342L344 342C361.55 342 379.172 343.738 395 334.663C410.168 325.966 419.259 309.964 421.575 293C423.564 278.425 422 262.706 422 248L422 161C422 137.068 421.052 115.867 401 99.3287C381.28 83.0641 352.735 88 329 88L182 88C160.422 88 132.207 83.1964 112 91.4537C96.0492 97.9717 84.097 111.434 79.4282 128C75.1348 143.234 78 162.242 78 178L78 266C78 287.045 76.9494 306.938 91.4398 323.996C112.128 348.35 146.569 342 175 342z"/>
    <path style="fill:#ebebeb; stroke:none;" d="M126 342L126 343L175 343C162.348 337.691 139.788 342 126 342M215 342L215 343L373 343C360.83 337.893 339.253 342 326 342L215 342z"/>
</svg>
