<?xml version="1.0" standalone="yes"?>
<svg width="500" height="500">
<path style="fill:#ffffff; stroke:none;" d="M0 0L0 500L500 500L500 0L0 0z"/>
<path style="fill:#dddddd; stroke:none;" d="M251 150L249 150C225.974 82.3766 131.387 74.3316 89.5147 127C57.6249 167.112 69.466 217.909 94.4252 258C122.94 303.804 164.214 342.435 206 375.999C215.86 383.919 225.81 391.774 236 399.265C239.524 401.856 244.458 406.821 249 407.212C254.626 407.697 261.758 400.074 266 396.989C281.537 385.691 296.435 373.388 311 360.87C320.967 352.304 330.164 342.961 340 334.285C350.845 324.72 360.752 313.867 370.285 303C403.531 265.1 441.023 214.531 427.241 161C409.595 92.4606 320.483 69.5463 271.015 119.015C262.63 127.4 254.321 138.473 251 150z"/>
</svg>
