<?xml version="1.0" standalone="yes"?>
<svg width="500" height="500">
<path style="fill:#ffffff; stroke:none;" d="M0 0L0 500L500 500L500 0L0 0z"/>
<path style="fill:#ff66c4; stroke:none;" d="M251 151C244.999 144.816 242.009 135.003 236.575 128C223.233 110.805 204.959 99.5835 184 94.1551C133.761 81.1432 75.8147 118.341 70.1736 171C66.0813 209.201 83.8096 245.014 105.884 275C134.761 314.225 171.082 348.065 209 378.4C218.201 385.76 227.462 393.068 237 399.989C240.31 402.391 244.744 406.845 249 407.212C254.828 407.714 262.606 399.503 267 396.265C283.212 384.323 298.889 371.457 314 358.155C323.832 349.5 333.187 340.369 343 331.715C353.128 322.782 362.241 312.126 371.155 302C406.424 261.938 444.606 207.682 424.305 152C402.802 93.0225 327.325 74.149 279 112.015C267.444 121.07 253.678 135.979 251 151z"/>
<path style="fill:#ffb5e2; stroke:none;" d="M69 176L69 191L70 191L69 176z"/>
</svg>
