<?xml version="1.0" standalone="yes"?>
<svg width="500" height="500">
<path style="fill:#ffffff; stroke:none;" d="M0 0L0 500L36 500C37.8905 476.045 47.3469 452.689 59.1505 432C137.421 294.813 348.448 292.422 434.667 422C449.865 444.841 461.821 472.395 464 500L500 500L500 0L0 0z"/>
<path style="fill:#846bff; stroke:none;" d="M236 50L236 51L246 51L236 50z"/>
<path style="fill:#6242ff; stroke:none;" d="M246 50.4244C207.701 55.3914 173.612 66.9828 149.745 100C98.2611 171.222 134.025 271.454 218 295.558C232.276 299.656 249.201 300.484 264 298.715C326.062 291.292 372.234 240.27 374.961 178C377.857 111.856 315.655 41.3909 246 50.4244z"/>
<path style="fill:#a492ff; stroke:none;" d="M254 50L254 51L263 51L254 50z"/>
<path style="fill:#b6a7ff; stroke:none;" d="M230 51L230 52L233 52L230 51z"/>
<path style="fill:#9d89ff; stroke:none;" d="M266 51L266 52L269 52L266 51z"/>
<path style="fill:#b6a7ff; stroke:none;" d="M277.667 53.3333L278.333 53.6667L277.667 53.3333M281.667 54.3333L282.333 54.6667L281.667 54.3333z"/>
<path style="fill:#a594ff; stroke:none;" d="M129.333 141.667L129.667 142.333L129.333 141.667M370.333 141.667L370.667 142.333L370.333 141.667M128.333 145.667L128.667 146.333L128.333 145.667z"/>
<path style="fill:#ab9aff; stroke:none;" d="M371.333 145.667L371.667 146.333L371.333 145.667M127 149L127 152L128 152L127 149z"/>
<path style="fill:#8d76ff; stroke:none;" d="M126 155L126 159L127 159L126 155z"/>
<path style="fill:#937dff; stroke:none;" d="M373 155L373 159L374 159L373 155z"/>
<path style="fill:#a18eff; stroke:none;" d="M125 161L125 170L126 170L125 161z"/>
<path style="fill:#beb2ff; stroke:none;" d="M374 162L374 166L375 166L374 162z"/>
<path style="fill:#b0a1ff; stroke:none;" d="M125 180L125 188L126 188L125 180z"/>
<path style="fill:#beb2ff; stroke:none;" d="M374 182L374 188L375 188L374 182z"/>
<path style="fill:#c3b7ff; stroke:none;" d="M126 190L126 195L127 195L126 190M373 190L373 195L374 195L373 190z"/>
<path style="fill:#9d89ff; stroke:none;" d="M127 197L127 200L128 200L127 197M372 197L372 200L373 200L372 197z"/>
<path style="fill:#baacff; stroke:none;" d="M128.333 202.667L128.667 203.333L128.333 202.667M371.333 202.667L371.667 203.333L371.333 202.667M129.333 206.667L129.667 207.333L129.333 206.667M370.333 206.667L370.667 207.333L370.333 206.667z"/>
<path style="fill:#c3b7ff; stroke:none;" d="M130.333 210.667L130.667 211.333L130.333 210.667M369.333 210.667L369.667 211.333L369.333 210.667z"/>
<path style="fill:#a492ff; stroke:none;" d="M217.667 295.333L218.333 295.667L217.667 295.333z"/>
<path style="fill:#c3b7ff; stroke:none;" d="M277.667 296.333L278.333 296.667L277.667 296.333z"/>
<path style="fill:#9d89ff; stroke:none;" d="M272 297L272 298L275 298L272 297z"/>
<path style="fill:#9b87ff; stroke:none;" d="M230 298L230 299L234 299L230 298M265 298L265 299L268 299L265 298z"/>
<path style="fill:#b2a2ff; stroke:none;" d="M237 299L237 300L261 300L237 299z"/>
<path style="fill:#aa99ff; stroke:none;" d="M233 326L233 327L238 327L233 326z"/>
<path style="fill:#6242ff; stroke:none;" d="M36 500L464 500C462.777 471.959 449.301 442.96 434 420C352.025 296.989 152.007 295.297 67.9761 417C51.697 440.577 37.2715 470.835 36 500z"/>
<path style="fill:#856cff; stroke:none;" d="M256 326L256 327L264 327L256 326z"/>
<path style="fill:#d7ceff; stroke:none;" d="M264 326L264 327L269 327L264 326z"/>
<path style="fill:#8e77ff; stroke:none;" d="M222 327L222 328L227 328L222 327z"/>
<path style="fill:#b3a4ff; stroke:none;" d="M272 327L272 328L276 328L272 327z"/>
<path style="fill:#bfb3ff; stroke:none;" d="M281 328L281 329L286 329L281 328z"/>
<path style="fill:#9d8aff; stroke:none;" d="M207 329L207 330L211 330L207 329z"/>
<path style="fill:#cbc1ff; stroke:none;" d="M288 329L288 330L293 330L288 329z"/>
<path style="fill:#a897ff; stroke:none;" d="M203.667 330.333L204.333 330.667L203.667 330.333M294 330L294 331L297 331L294 330z"/>
<path style="fill:#ac9bff; stroke:none;" d="M198.667 331.333L199.333 331.667L198.667 331.333z"/>
<path style="fill:#ac9cff; stroke:none;" d="M299 331L299 332L302 332L299 331z"/>
<path style="fill:#9b87ff; stroke:none;" d="M194.667 332.333L195.333 332.667L194.667 332.333z"/>
<path style="fill:#c3b7ff; stroke:none;" d="M304.667 332.333L305.333 332.667L304.667 332.333z"/>
<path style="fill:#a08eff; stroke:none;" d="M190.667 333.333L191.333 333.667L190.667 333.333z"/>
<path style="fill:#9b87ff; stroke:none;" d="M183.667 335.333L184.333 335.667L183.667 335.333z"/>
<path style="fill:#b0a1ff; stroke:none;" d="M40.3333 475.667L40.6667 476.333L40.3333 475.667M459.333 475.667L459.667 476.333L459.333 475.667M39.3333 479.667L39.6667 480.333L39.3333 479.667M460.333 479.667L460.667 480.333L460.333 479.667M38 483L38 486L39 486L38 483z"/>
<path style="fill:#b5a6ff; stroke:none;" d="M37 488L37 491L38 491L37 488z"/>
<path style="fill:#beb2ff; stroke:none;" d="M462 488L462 491L463 491L462 488z"/>
</svg>
