<?xml version="1.0" standalone="yes"?>
<svg width="500" height="500">
<path style="fill:#ffffff; stroke:none;" d="M0 0L0 500L36 500C41.3614 471.544 49.1387 445.184 65.885 421C153.72 294.154 354.689 295.533 437.947 427C452.379 449.789 459.143 473.855 464 500L500 500L500 0L0 0z"/>
<path style="fill:#cccccc; stroke:none;" d="M236 50.5139C185.839 60.5353 144.149 89.6323 129.427 141C104.607 227.608 184.742 316.9 274 297.639C335.34 284.402 379.546 228.251 374.91 165C370.979 111.372 331.884 68.2494 281 54.3604C267.047 50.5519 250.483 47.6205 236 50.5139z"/>
<path style="fill:#c4c4c4; stroke:none;" d="M36 500L464 500C461.364 479.146 455.667 459.84 446.247 441C372.148 292.801 135.045 286.764 56.7809 435C45.8891 455.63 38.9396 476.861 36 500z"/>
</svg>
