<?xml version="1.0" standalone="yes"?>
<svg width="500" height="500">
<path style="fill:#ffffff; stroke:none;" d="M0 0L0 500L500 500L500 0L0 0z"/>
<path style="fill:#d9d9d9; stroke:none;" d="M265 98L322 88L243 187L243 188C252.638 195.769 262.334 203.467 272 211.2C274.972 213.577 279.834 219.181 283.985 218.883C291.076 218.373 301.17 200.287 305.4 195L346.4 144C352.887 135.891 361.764 127.504 366 118L367 118L372 179C388.197 166.576 400.794 143.286 413.13 127C417.731 120.926 425.981 113.599 427.697 106C430.322 94.3764 426.28 80.6222 425.17 69C423.207 48.4577 423.775 27.3367 420 7C396.902 7.06363 371.649 14.7721 349 19.3349C340.699 21.0071 328.639 20.5087 321.3 25.0131C314.044 29.4671 307.962 41.2188 302.873 48C290.442 64.5669 275.97 80.4431 265 98z"/>
<path style="fill:#dfdfdf; stroke:none;" d="M280 271L279 271C271.214 260.175 253.577 243.594 240 241.326C222.772 238.448 203.45 253.176 208.725 272C212.435 285.238 225.188 293.518 235 302.155C254.633 319.438 274.763 336.281 294 354C287.376 355.577 280.635 354.216 274 355.468C260.247 358.062 244.496 372.871 251.228 388C261.404 410.867 304.553 405.452 325 409.261C345.531 413.085 366.117 416.727 386 423.355C393.858 425.974 405.99 435.091 414 434.639C421.633 434.208 428.581 422.197 433.155 417C446.329 402.034 459.556 387.1 472.576 372C477.067 366.792 485.875 359.907 487.431 353C488.625 347.702 482.756 341.26 480.2 337C472.382 323.97 464.418 311.029 456.6 298C442.518 274.529 429.192 256.506 408 238.919C395.332 228.406 383.372 219.425 366 222.326C358.09 223.647 353.048 229.099 346 232.066C339.738 234.701 333.954 234.591 328 238.785C323.421 242.01 319.735 247.478 314.91 250.112C311.417 252.019 306.797 250.661 303 251.8C293.689 254.593 284.764 262.759 280 271z"/>
<path style="fill:#f1f1f1; stroke:none;" d="M359 239C362.278 243.558 366.772 247.041 371 250.718C374.918 254.126 381.414 258.072 383.434 263.039C385.272 267.557 380.571 272.392 376 270.727C358.981 264.526 349.108 233.709 330.063 254.039C321.793 262.868 340.391 272.212 345.941 278.039C349.336 281.603 351.226 287.353 344.981 289.353C339.906 290.977 335.356 285.316 332 282.424C320.316 272.354 310.548 257.547 296.04 271.174C283.763 282.705 307.488 295.249 315.996 302.845C319.794 306.235 327.158 314.631 317.981 317.338C311.974 319.109 304.003 309.028 300 305.576C283.9 291.694 268.157 277.396 252 263.579C244.374 257.058 231.867 246.655 223.742 259.043C215.191 272.081 234.961 284.29 243 291.282C263.418 309.04 283.689 326.966 304 344.845C309.377 349.578 324.502 358.496 325.418 366.014C325.901 369.981 321.767 373.315 318 372.353C314.315 371.411 311.835 368.07 308 367.279C298.65 365.348 280.625 365.835 272 369.92C268.231 371.704 263.296 375.354 263.296 379.999C263.296 386.639 271.75 389.431 277 390.384C294.118 393.493 311.86 393.213 329 396.665C348.483 400.589 367.954 404.107 387 410.025C393.378 412.007 405.626 420.017 411.961 419.006C417.699 418.091 424.183 407.16 427.845 403C438.101 391.349 448.441 379.755 458.576 368C462.554 363.387 468.564 358.481 471.268 353C473.162 349.16 469.699 345.168 467.8 342L452.2 316C436.868 290.446 423.237 268.45 400 249.25C387.307 238.762 375.28 229.746 359 239z"/>
<path style="fill:#d9d9d9; stroke:none;" d="M176 275C150.549 309.334 123.542 346.129 94 377L89 316L88 316L50.2099 366L33.564 389L35.7145 422L41 489C63.6799 488.532 88.7514 481.067 111 476.513C119.176 474.84 132.557 475.18 139.7 470.973C146.713 466.843 152.526 455.463 157.373 449C169.588 432.714 187.725 415.571 196 397L138 408L190.4 343L218 307L176 275z"/>
</svg>
